<?xml version="1.0" encoding="utf-8"?>
<svg version="1.1" xmlns:xlink="http://www.w3.org/1999/xlink" width="294px" height="21px" xmlns="http://www.w3.org/2000/svg">
  <defs>
    <mask fill="white" id="clip183">
      <path d="M 0 21  L 0 0  L 294 0  L 294 21  L 174.269565217391 21  L 157.107729468599 21  L 0 21  Z " fill-rule="evenodd" />
    </mask>
  </defs>
  <g transform="matrix(1 0 0 1 -1009 -171 )">
    <path d="M 0 21  L 0 0  L 294 0  L 294 21  L 174.269565217391 21  L 157.107729468599 21  L 0 21  Z " fill-rule="nonzero" fill="#ffff00" stroke="none" transform="matrix(1 0 0 1 1009 171 )" />
    <path d="M 0 21  L 0 0  L 294 0  L 294 21  L 174.269565217391 21  L 157.107729468599 21  L 0 21  Z " stroke-width="2" stroke="#d9001b" fill="none" transform="matrix(1 0 0 1 1009 171 )" mask="url(#clip183)" />
  </g>
</svg>