<?xml version="1.0" encoding="utf-8"?>
<svg version="1.1" xmlns:xlink="http://www.w3.org/1999/xlink" width="409px" height="21px" xmlns="http://www.w3.org/2000/svg">
  <defs>
    <mask fill="white" id="clip156">
      <path d="M 0 21  L 0 0  L 409 0  L 409 21  L 242.436231884058 21  L 218.561433172303 21  L 0 21  Z " fill-rule="evenodd" />
    </mask>
  </defs>
  <g transform="matrix(1 0 0 1 -425 -256 )">
    <path d="M 0 21  L 0 0  L 409 0  L 409 21  L 242.436231884058 21  L 218.561433172303 21  L 0 21  Z " fill-rule="nonzero" fill="#ffff00" stroke="none" transform="matrix(1 0 0 1 425 256 )" />
    <path d="M 0 21  L 0 0  L 409 0  L 409 21  L 242.436231884058 21  L 218.561433172303 21  L 0 21  Z " stroke-width="2" stroke="#d9001b" fill="none" transform="matrix(1 0 0 1 425 256 )" mask="url(#clip156)" />
  </g>
</svg>