<?xml version="1.0" encoding="utf-8"?>
<svg version="1.1" xmlns:xlink="http://www.w3.org/1999/xlink" width="416px" height="84px" xmlns="http://www.w3.org/2000/svg">
  <defs>
    <mask fill="white" id="clip149">
      <path d="M 0 84  L 0 0  L 416 0  L 416 84  L 246.585507246377 84  L 222.302093397746 84  L 0 84  Z " fill-rule="evenodd" />
    </mask>
  </defs>
  <g transform="matrix(1 0 0 1 -639 -429 )">
    <path d="M 0 84  L 0 0  L 416 0  L 416 84  L 246.585507246377 84  L 222.302093397746 84  L 0 84  Z " fill-rule="nonzero" fill="#ffff00" stroke="none" transform="matrix(1 0 0 1 639 429 )" />
    <path d="M 0 84  L 0 0  L 416 0  L 416 84  L 246.585507246377 84  L 222.302093397746 84  L 0 84  Z " stroke-width="2" stroke="#d9001b" fill="none" transform="matrix(1 0 0 1 639 429 )" mask="url(#clip149)" />
  </g>
</svg>