<?xml version="1.0" encoding="utf-8"?>
<svg version="1.1" xmlns:xlink="http://www.w3.org/1999/xlink" width="577px" height="227px" xmlns="http://www.w3.org/2000/svg">
  <g transform="matrix(1 0 0 1 -221 -187 )">
    <path d="M 221 187  L 798 187  L 798 414  L 221 414  L 221 187  " fill-rule="nonzero" fill="#cccccc" stroke="none" />
    <path d="M 237 203  L 782 203  L 782 398  L 237 398  L 237 203  " fill-rule="nonzero" fill="#ffffff" stroke="none" />
    <path d="M 538.065 255.1  C 528.531 255.1  521.04 247.609  521.04 238.075  C 521.04 228.541  528.531 221.05  538.065 221.05  C 547.599 221.05  555.09 228.541  555.09 238.075  C 555.09 247.609  547.599 255.1  538.065 255.1  " fill-rule="nonzero" fill="#cccccc" stroke="none" />
    <path d="M 243 393  L 243 291.8  L 376.5 245.8  L 563.4 349.567071057192  L 670.2 273.4  L 777 349.567071057192  L 777 393  L 243 393  " fill-rule="nonzero" fill="#169bd5" stroke="none" />
  </g>
</svg>