<?xml version="1.0" encoding="utf-8"?>
<svg version="1.1" xmlns:xlink="http://www.w3.org/1999/xlink" width="262px" height="42px" xmlns="http://www.w3.org/2000/svg">
  <defs>
    <mask fill="white" id="clip160">
      <path d="M 0 42  L 0 0  L 262 0  L 262 42  L 155.301449275362 42  L 140.007568438003 42  L 0 42  Z " fill-rule="evenodd" />
    </mask>
  </defs>
  <g transform="matrix(1 0 0 1 -863 -187 )">
    <path d="M 0 42  L 0 0  L 262 0  L 262 42  L 155.301449275362 42  L 140.007568438003 42  L 0 42  Z " fill-rule="nonzero" fill="#ffff00" stroke="none" transform="matrix(1 0 0 1 863 187 )" />
    <path d="M 0 42  L 0 0  L 262 0  L 262 42  L 155.301449275362 42  L 140.007568438003 42  L 0 42  Z " stroke-width="2" stroke="#d9001b" fill="none" transform="matrix(1 0 0 1 863 187 )" mask="url(#clip160)" />
  </g>
</svg>